<svg width="474" height="117" viewBox="0 0 474 117" fill="none" xmlns="http://www.w3.org/2000/svg">
<path d="M322.079 38.1417L299.162 96.1678L276.074 38.1417H258.058L290.15 113.138H306.528L338.629 38.1417H322.079ZM231.366 38.1417V77.7344C231.366 91.9569 224.33 100.207 212.046 100.207C199.762 100.207 192.726 91.9612 192.726 77.7344V38.1417H176.677V78.3846C176.677 100.698 190.266 114.748 212.05 114.748C233.835 114.748 247.423 100.694 247.423 78.3846V38.1417H231.366ZM126.73 36.3632C120.728 36.3505 114.8 37.6896 109.395 40.2773C96.0423 46.7191 87.6276 60.1578 87.7629 74.8279C87.7629 94.0709 105.94 116.371 121.496 116.371C125.43 116.341 129.073 114.326 131.158 111.032C137.549 101.494 144.101 96.0086 153.75 91.8017C162.762 87.9222 165.214 84.0468 165.214 74.1907C165.209 52.8462 148.35 36.3632 126.73 36.3632ZM143.761 86.6305C137.208 90.6694 133.775 94.0666 131.154 99.393C130.067 101.525 127.838 102.846 125.422 102.791C114.939 102.791 102.991 89.2054 102.991 77.2521C102.991 63.8393 112.976 53.8107 126.565 53.8107C139.455 53.8581 149.867 64.214 149.819 76.9379C149.819 77.0412 149.815 77.1446 149.815 77.2521C149.815 81.4503 148.35 83.8833 143.761 86.6305ZM39.9491 36.3632C30.9454 36.2687 22.2559 39.6316 15.717 45.7416L15.5555 0H0V113.142H16.0529V105.546C22.6136 111.372 31.1242 114.593 39.9491 114.593C61.5681 114.593 77.9435 97.6191 77.9435 75.4782C77.9435 53.3373 61.5681 36.3632 39.9491 36.3632ZM38.6404 100.048C25.5363 100.048 15.7126 89.5412 15.7126 75.4782C15.7126 61.4151 25.5363 50.9085 38.6404 50.9085C51.7443 50.9085 61.5678 61.4151 61.5678 75.4782C61.5678 89.5412 51.7443 100.048 38.6404 100.048ZM474 38.1417H450.748L450.575 0H435.018V38.1417H424.332V51.8733H435.018V113.138H450.907L450.746 51.8733H473.994V38.1417H474Z" fill="white"/>
<path d="M417.747 80.5431H359.048C360.234 87.82 363.163 93.8699 369.822 97.5557C373.336 99.4202 377.273 100.372 381.263 100.329C388.186 100.424 394.709 99.0586 400.286 94.7183C401.972 93.2801 403.581 91.7514 405.103 90.1452L415.837 100.484C413.691 103.029 411.211 105.281 408.457 107.171C399.602 113.281 389.696 115.529 379.064 114.943C370.444 114.646 362.204 111.373 355.784 105.694C348.515 99.2437 344.672 91.0066 343.596 81.4602C342.475 73.2361 343.758 64.8696 347.286 57.3387C352.9 45.76 362.335 39.2753 374.968 37.3549C382.768 35.9987 390.8 37.0924 397.936 40.4895C407.93 45.3595 413.731 53.6012 416.504 64.1248C417.889 69.4856 418.312 75.0402 417.747 80.5431ZM359.369 67.8365H401.399C400.05 58.2989 392.046 51.0348 382.305 50.5051C370.078 49.8163 361.449 56.3353 359.369 67.8365Z" fill="white"/>
</svg>
