<svg width="635" height="127" viewBox="0 0 635 127" fill="none" xmlns="http://www.w3.org/2000/svg">
<path d="M157.111 95.7655C155.803 96.0485 154.583 96.5633 153.492 97.2684L138.235 82.0111L118.715 62.4919L153.492 27.7153C154.583 28.4205 155.803 28.9353 157.111 29.2183V95.7655ZM148.545 104.331H82.0085C81.7202 103.024 81.2055 101.804 80.5003 100.707L115.277 65.9305L130.55 81.2032L150.054 100.707C149.348 101.804 148.833 103.024 148.545 104.331V104.331ZM77.0617 97.2684C75.9652 96.5633 74.7456 96.0485 73.438 95.7603V29.2235C74.7456 28.9353 75.9652 28.4205 77.0617 27.7153L111.838 62.4919L77.0617 97.2684ZM82.0085 20.653H148.545C148.833 21.9606 149.348 23.1802 150.054 24.2771L115.277 59.0533L80.5003 24.2771C81.2055 23.1802 81.7202 21.9606 82.0085 20.653ZM161.975 95.7603V29.2235C167.025 28.1116 170.808 23.6077 170.808 18.2233C170.808 12.0053 165.764 6.96072 159.545 6.96072C154.161 6.96072 149.657 10.744 148.545 15.7939H82.0085C80.8965 10.744 76.3926 6.96072 71.0086 6.96072C64.7903 6.96072 59.7457 12.0053 59.7457 18.2233C59.7457 23.6077 63.5237 28.1067 68.5736 29.2183V95.7655C63.5237 96.8775 59.7457 101.376 59.7457 106.761C59.7457 112.979 64.7903 118.023 71.0086 118.023C76.3926 118.023 80.8965 114.24 82.0085 109.19H148.545C149.657 114.24 154.161 118.023 159.545 118.023C165.764 118.023 170.808 112.979 170.808 106.761C170.808 101.376 167.025 96.8722 161.975 95.7603" fill="white"/>
<path d="M197.076 57.3188C197.076 57.3188 184.897 73.6828 161.975 79.8751C160.405 80.3026 158.784 80.6781 157.111 80.9972C152.514 81.8827 147.536 82.341 142.193 82.1916C140.927 82.1555 139.609 82.099 138.235 82.0114C135.826 81.8567 133.262 81.6098 130.55 81.2031C123.59 80.1634 115.684 78.1148 107.108 74.0997C105.924 73.5488 104.73 72.9569 103.52 72.3289C103.185 72.1539 102.851 71.9838 102.516 71.8141C95.4385 68.1904 88.0725 65.2921 73.438 64.5252C71.8989 64.4481 70.2828 64.3913 68.5736 64.3555C67.719 64.3401 66.8389 64.3348 65.9328 64.3296C57.8153 64.2987 33.478 68.6893 33.478 68.6893C33.478 68.6893 45.6568 52.331 68.5736 46.133C70.1435 45.7112 71.765 45.3304 73.438 45.0162C78.0401 44.1255 83.0178 43.6675 88.3657 43.8169C89.9668 43.8632 91.65 43.9403 93.4208 44.0743C95.8709 44.2594 98.4756 44.5477 101.224 45.0007C107.695 46.0611 114.942 48.0122 122.751 51.5791C124.162 52.2279 125.593 52.9229 127.039 53.6796C127.147 53.7361 127.255 53.7925 127.364 53.8441C134.658 57.6326 142.013 60.6904 157.111 61.4829C158.65 61.5653 160.266 61.6221 161.975 61.6582C162.835 61.6684 163.72 61.6786 164.626 61.6838C172.739 61.7094 197.076 57.3188 197.076 57.3188Z" fill="white"/>
<path d="M231.209 35.0986H212.333V16.1566H273.743V35.0986H254.867V109.264H231.209V35.0986Z" fill="white"/>
<path d="M281.167 16.1566H304.824V109.264H281.167V16.1566Z" fill="white"/>
<path d="M360.32 71.3805H341.948V109.264H318.289V16.1568H341.948V51.9057H360.32V16.1568H383.978V109.264H360.32V71.3805Z" fill="white"/>
<path d="M397.442 16.1566H421.1V90.3223H450.043V109.264H397.442V16.1566Z" fill="white"/>
<path d="M481.629 91.3892H486.789C493.584 91.3892 498.68 88.9444 502.078 84.0526C505.476 79.163 507.175 72.1812 507.175 63.1106C507.175 57.1538 506.545 52.306 505.286 48.5708C504.029 44.8361 502.33 41.9473 500.191 39.9006C498.051 37.8558 495.534 36.4552 492.64 35.6985C489.746 34.9444 486.704 34.5647 483.517 34.5647H481.629V91.3892ZM457.971 16.1567H491.822C498.281 16.1567 504.007 17.2472 508.999 19.4248C513.989 21.6051 518.205 24.717 521.646 28.7622C525.085 32.8097 527.687 37.656 529.448 43.3016C531.21 48.9501 532.091 55.2407 532.091 62.1766C532.091 70.27 531.104 77.2728 529.133 83.1856C527.161 89.101 524.309 93.9902 520.576 97.8585C516.843 101.727 512.249 104.595 506.797 106.463C501.343 108.33 495.135 109.264 488.173 109.264H457.971V16.1567Z" fill="white"/>
<path d="M541.781 16.1566H595.64V34.5646H564.935V52.439H594.13V70.8471H564.935V90.8555H597.276V109.264H541.781V16.1566Z" fill="white"/>
</svg>
